<?xml version="1.0" encoding="utf-8"?>
<!-- Generator: Adobe Illustrator 25.0.1, SVG Export Plug-In . SVG Version: 6.00 Build 0)  -->
<svg>


		<path class="st2" d="M552.5,556.1l0.1-1.2l0.1-1.3l0.2-1.2l0.4-1.2l0.2-1.1l0.4-1.2l0.5-1.1l0.5-1l0.5-1.1l0.6-1l0.6-1l0.7-1
			l0.6-1l0.7-0.8l0.8-0.8l0.7-0.7l1-0.8l0.8-0.7l1-0.7l1-0.6l0.9-0.7l1.1-0.6l1.1-0.5l1.1-0.6l1.2-0.5l1.2-0.5l1.2-0.4l1.2-0.4
			l1.1-0.4l1.2-0.2l1.1-0.2l1.1-0.2l1.2-0.2l1.2-0.1l1.1-0.1l1.2-0.1l1.3-0.1l1.2-0.1h1.2h1.3h1.3h1.2l1.2,0.1h1.3l1.2,0.1l1.2,0.1
			l1.3,0.1l1.2,0.2l1.2,0.1l1.2,0.2l1.2,0.2l1.2,0.2l1.2,0.2l1.2,0.4l1.1,0.2l1.2,0.4l1.2,0.4l1.1,0.5l1.2,0.4l1.1,0.4l1.2,0.5
			l1.1,0.5l1.1,0.5l1.1,0.6l1.1,0.5l1.1,0.6l0.9,0.6l1.1,0.6l0.9,0.6l1,0.6l0.9,0.7l0.9,0.7l1,0.7l1,0.7l0.8,0.7l0.9,0.8l-0.7,1
			l-0.8,0.8l-0.7,1l-0.8,1l-0.7,0.8l-0.7,1l-0.8,1l-0.7,0.8l-0.8,1l-0.7,0.8l-0.8,1l-0.7,1l-0.7,0.8l-0.8,1l-0.7,1l-0.8,0.8l-0.7,1
			l-0.9-0.7l-1.1-0.7l-1-0.7l-1.1-0.7l-1-0.6l-1.1-0.7l-0.9-0.6l-1.1-0.5l-0.9-0.6l-1.1-0.5l-1.1-0.5l-1.1-0.5l-1.1-0.4l-1.1-0.5
			l-1.2-0.4l-1.2-0.4l-1.1-0.4l-1.2-0.2l-1.2-0.2l-1.2-0.2l-1.3-0.1l-1.2-0.2h-1.2l-1.3-0.1h-1.2h-1.4l-1.3,0.1l-1.2,0.2l-1.1,0.2
			L580,551l-1,0.4l-0.8,0.5l-1,0.7l-0.7,0.8l-0.5,1l-0.4,1.1l-0.1,1.2v0.2l0.1,1.4l0.5,1.2l0.6,0.8l0.8,0.7l1,0.7l0.9,0.5l1.1,0.5
			l1.2,0.5l1.4,0.6l0.8,0.2l0.9,0.2l1.1,0.4l1.1,0.2l1.2,0.4l1.2,0.2l1.3,0.4l1.2,0.2l1.3,0.4l1.2,0.2l1.2,0.4l1.2,0.2l1.2,0.4
			l1.1,0.4l1.2,0.2l1.1,0.4l1.1,0.4l1.1,0.4l1.3,0.5l1.2,0.5l1.2,0.5l1.2,0.5l1.1,0.6l1.2,0.6l1,0.6l1.1,0.6l0.9,0.7l1,0.6l0.8,0.7
			l0.8,0.8l0.8,0.8l0.7,0.8l0.7,0.8l0.6,0.8l0.6,1l0.6,1.1l0.5,0.8l0.4,1l0.3,1.1l0.4,1l0.2,1.2l0.2,1.1l0.1,1.2l0.1,1.2l0.1,1.3
			v1.3v0.2v1.2l-0.1,1.2l-0.1,1.1l-0.1,1.2l-0.2,1.1l-0.2,1.1l-0.4,1.1l-0.2,1.1l-0.5,1.1l-0.5,1.1l-0.5,1.1l-0.6,1.1l-0.6,1.1
			l-0.7,1l-0.7,1l-0.8,1l-0.8,0.8l-0.8,1l-1,0.8l-0.8,0.6l-1,0.7l-0.9,0.7l-0.9,0.6l-1.1,0.6l-1.1,0.5l-1.1,0.6l-1.1,0.5l-1.2,0.4
			l-1.2,0.5l-1.1,0.4l-0.9,0.2l-1.1,0.2l-1.1,0.2l-1.2,0.2l-1.1,0.2l-1.2,0.1l-1.2,0.1l-1.2,0.1l-1.2,0.1h-1.2h-1.3h-1.3h-1.3
			l-1.3-0.1l-1.3-0.1h-1.2l-1.3-0.1l-1.2-0.2l-1.3-0.1l-1.2-0.2l-1.1-0.2l-1.2-0.2l-1.2-0.2l-1.1-0.2l-1.2-0.4l-1.1-0.4l-1.1-0.2
			l-1.2-0.5l-1.1-0.4l-1.1-0.5l-1.1-0.5l-1.2-0.5l-1.1-0.6l-1-0.5l-1.1-0.6l-1.1-0.6l-0.9-0.6l-1.1-0.7l-1-0.6l-1-0.7l-0.9-0.7
			l-0.9-0.7l0.7-1l0.6-1l0.7-1l0.7-1l0.7-1.1l0.6-1l0.7-1l0.7-1l0.6-1l0.7-1l0.7-1l0.6-1l0.7-1.1l0.7-1l0.7-1l0.6-1l0.7-1l1,0.7
			l1.1,0.6l0.9,0.6l1,0.7l1.1,0.5l1,0.6l1.1,0.5l0.9,0.5l1.1,0.5l0.9,0.5l1.1,0.4l1,0.5l1.3,0.4l1.2,0.4l1.2,0.4l1.2,0.2l1.2,0.2
			l1.2,0.2l1.2,0.1l1.2,0.1l1.1,0.1h1.2h1.4l1.3-0.2l1.2-0.2l1.1-0.2l0.9-0.5l0.8-0.5l1.1-1l0.7-1.1l0.5-1.1l0.1-1.2v-0.2l-0.1-1.6
			l-0.6-1.3l-0.5-0.7l-0.8-0.8l-1.1-0.6l-0.9-0.6l-1.2-0.5l-1.3-0.5l-1.4-0.5l-0.9-0.2l-1-0.4l-1.1-0.2l-1.1-0.4l-1.2-0.2l-1.3-0.4
			l-1.3-0.4l-1.3-0.4l-1.3-0.2l-1.2-0.4l-1.3-0.4l-1.2-0.2l-1.2-0.4l-1.2-0.4l-1.1-0.4l-1.2-0.4l-1.1-0.4l-1.1-0.4l-1.3-0.5
			l-1.2-0.6l-1.2-0.5l-1.2-0.6l-1.1-0.6l-1.1-0.6l-0.9-0.6l-1-0.7l-1-0.6l-0.9-0.8l-1-0.8l-0.8-1l-0.8-0.8l-0.7-1l-0.7-1.1l-0.6-1
			l-0.6-1.1l-0.5-1l-0.4-1.1l-0.4-1.1l-0.2-1.1l-0.2-1.2l-0.2-1.2l-0.1-1.2l-0.1-1.3V559v-0.2v-1.3L552.5,556.1z M636,532.2h1.2h1.2
			h1.2h1.2h1.2h1.2h1.2h1.2h1.3h1.2h1.2h1.2h1.2h1.2h1.2h1.2h1.2h1.2h1.2h1.2h1.2h1.2h1.2h1.2h1.2h1.2h1.2h1.2h1.3h1.2h1.2h1.2h1.2
			h1.2h1.2h1.2h1.2h1.2h1.2h1.2h1.2h1.2h1.2h1.2h1.2h1.2h1.2h1.3h1.2h1.2h1.2h1.2h1.2h1.2h1.2h1.2h1.2v1.2v1.2v1.2v1.2v1.2v1.2v1.2
			v1.2v1.2v1.2v1.2v1.2v1.2v1.2v1.2v1.2v1.2v1.2v1.1v1.2v1.2v1.2v1.2v1.2v1.2v1.2v1.2v1.2v1.2v1.2v1.2v1.2v1.2v1.2v1.2v1.2v1.2v1.2
			v1.2v1.2v1.2v1.2v1.2v1.2v1.2v1.2v1.2v1.2v1.2v1.2v1.2v1.2v1.2v1.2v1.1v1.2v1.2v1.2v1.2v1.2v1.2v1.2v1.2v1.2v1.2v1.2v1.2v1.2v1.2
			v1.2v1.2v1.2v1.2H703h-1.2h-1.2h-1.2h-1.2H697h-1.2h-1.2h-1.2h-1.2h-1.2h-1.2h-1.2h-1.2h-1.1h-1.2h-1.2h-1.2h-1.2h-1.2h-1.2h-1.2
			h-1.2h-1.2h-1.2h-1.2h-1.2H671h-1.2h-1.2h-1.2h-1.2H665h-1.2h-1.2h-1.2h-1.2h-1.2h-1.2h-1.2h-1.2h-1.2h-1.2H652h-1.2h-1.2h-1.2
			h-1.2h-1.2h-1.2h-1.2h-1.2h-1.2h-1.2H639h-1.2h-1.2h-1.2V618v-1.1v-1.2v-1.2v-1.2v-1.1v-1.2v-1.2v-1.1v-1.2v-1.2v-1.1v-1.2v-1.2
			v-1.2v-1.1v-1.2h1.2h1.2h1.2h1.2h1.2h1.2h1.1h1.2h1.2h1.2h1.2h1.2h1.2h1.2h1.2h1.2h1.2h1.2h1.2h1.1h1.2h1.2h1.2h1.2h1.2h1.2h1.2
			h1.2h1.2h1.2h1.2h1.2h1.1h1.2h1.2h1.2h1.2h1.2h1.2v-1.2v-1.2v-1.2v-1.2v-1.2v-1.1v-1.2V590v-1.2v-1.2v-1.2v-1.2h-1.2h-1.2h-1.2
			h-1.2h-1.2h-1.2h-1.2h-1.2h-1.1h-1.2h-1.2h-1.2h-1.2h-1.2h-1.2h-1.2h-1.2h-1.2H659h-1.2h-1.2h-1.2h-1.2H653h-1.2h-1.2h-1.1h-1.2
			h-1.2H646h-1.2h-1.2h-1.2h-1.2H640v-1.2V583v-1.2v-1.2v-1.1v-1.2v-1.2v-1.1v-1.2v-1.2v-1.2v-1.1v-1.2V569v-1.1v-1.2h1.2h1.2h1.2
			h1.2h1.2h1.2h1.2h1.2h1.1h1.2h1.2h1.2h1.2h1.2h1.2h1.2h1.2h1.2h1.2h1.2h1.2h1.2h1.2h1.2h1.2h1.2h1.1h1.2h1.2h1.2h1.2h1.2h1.2h1.2
			h1.2v-1.2v-1.3V563v-1.2v-1.3v-1.2v-1.2v-1.3v-1.2v-1.2v-1.3v-1.2h-1.2h-1.2h-1.2h-1.2h-1.2h-1.2h-1.2h-1.2h-1.2h-1.3h-1.2H667
			h-1.2h-1.2h-1.2h-1.2h-1.2h-1.2h-1.2h-1.2h-1.2h-1.2H654h-1.2h-1.2h-1.2h-1.2H648h-1.2h-1.3h-1.2h-1.2h-1.2h-1.2h-1.2h-1.2h-1.2
			H636h-1.2v-1.2v-1.1v-1.2v-1.2v-1.2V545v-1.2v-1.2v-1.1v-1.2v-1.2V538v-1.2v-1.2v-1.2v-1.1v-1.2H636z M722.9,532.2h1.2h1.2h1.3
			h1.2h1.2h1.2h1.2h1.2h1.3h1.2h1.2h1.2h1.2h1.2h1.3h1.2h1.2h1.2v1.2v1.2v1.2v1.2v1.2v1.2v1.2v1.2v1.2v1.2v1.2v1.2v1.2v1.2v1.2v1.2
			v1.2v1.2v1.2v1.2v1.2v1.2v1.2v1.2v1.2v1.2v1.2v1.2v1.2v1.2v1.2v1.2v1.2v1.2v1.2v1.2v1.2v1.2v1.2v1.2v1.2v1.2v1.2l0.6-1l0.7-1.1
			l0.6-1l0.7-1l0.6-1.1l0.7-1l0.6-1l0.6-1.1l0.7-1l0.6-1l0.7-1l0.6-1.1l0.7-1l0.6-1l0.6-1.1l0.7-1l0.6-1l0.7-1.1l0.6-1l0.7-1
			l0.6-1.1l0.6-1l0.7-1l0.6-1.1l0.7-1l0.6-1l0.7-1l0.6-1.1l0.6-1l0.7-1l0.6-1.1l0.7-1l0.6-1l0.7-1.1l0.6-1h0.5l0.7,1.1l0.6,1
			l0.7,1.1l0.6,1l0.7,1.1l0.6,1l0.7,1.1l0.6,1l0.7,1.1l0.6,1l0.7,1.1l0.6,1l0.7,1.1l0.6,1l0.7,1.1l0.6,1l0.7,1.1l0.7,1l0.6,1.1
			l0.7,1l0.6,1.1l0.7,1l0.6,1.1l0.7,1l0.6,1.1l0.7,1l0.6,1.1l0.7,1l0.6,1.1l0.7,1l0.6,1.1l0.7,1l0.6,1.1l0.7,1v-1.2V581v-1.2v-1.2
			v-1.2v-1.2V575v-1.2v-1.2v-1.2v-1.1v-1.2V568v-1.2v-1.2v-1.2v-1.2V562v-1.2v-1.2v-1.2v-1.2V556v-1.2v-1.2v-1.2v-1.2V550v-1.2v-1.2
			v-1.2v-1.2v-1.1V543v-1.2v-1.2v-1.2v-1.2V537v-1.2v-1.2v-1.2v-1.2h1.2h1.2h1.2h1.2h1.2h1.2h1.2h1.2h1.2h1.2h1.2h1.2h1.2h1.2h1.2
			h1.2h1.2h1.2h1.2v1.2v1.2v1.2v1.2v1.2v1.2v1.2v1.2v1.2v1.2v1.2v1.2v1.2v1.2v1.2v1.2v1.2v1.2v1.1v1.2v1.2v1.2v1.2v1.2v1.2v1.2v1.2
			v1.2v1.2v1.2v1.2v1.2v1.2v1.2v1.2v1.2v1.2v1.2v1.2v1.2v1.2v1.2v1.2v1.2v1.2v1.2v1.2v1.2v1.2v1.2v1.2v1.2v1.2v1.2v1.1v1.2v1.2v1.2
			v1.2v1.2v1.2v1.2v1.2v1.2v1.2v1.2v1.2v1.2v1.2v1.2v1.2v1.2v1.2h-1.2h-1.2h-1.1h-1.2H807h-1.2h-1.1h-1.2h-1.2h-1.2H800h-1.2h-1.2
			h-1.2h-1.1h-1.2H793h-1.2h-1.1h-1.2h-1.2l-0.6-1l-0.6-1.1l-0.7-0.9l-0.6-1.1l-0.6-1l-0.6-1.1l-0.6-0.9l-0.7-1.1l-0.6-1l-0.6-1
			l-0.6-1.1l-0.6-1l-0.7-1.1l-0.6-1l-0.6-1.1l-0.6-1l-0.7-1l-0.6-1.1l-0.6-1L776,599l-0.6-1l-0.7-1.1l-0.6-1l-0.6-1.1l-0.6-0.9
			l-0.6-1l-0.7-1.1l-0.6-1l-0.6-1.1l-0.6-0.9l-0.6-1.1l-0.7-1l-0.6-1.1l-0.6-1l-0.6,1l-0.6,1.1l-0.7,1l-0.6,1.1l-0.6,0.9l-0.6,1.1
			l-0.7,1l-0.6,1.1l-0.6,1l-0.6,0.9l-0.7,1.1l-0.6,1l-0.6,1.1l-0.6,1l-0.7,1.1l-0.6,1l-0.6,1.1l-0.6,1l-0.6,1l-0.7,1.1l-0.6,1
			l-0.6,1.1l-0.6,1l-0.7,1.1l-0.6,1l-0.6,1l-0.6,1.1l-0.7,0.9l-0.6,1.1l-0.6,1l-0.6,1.1l-0.7,0.9l-0.6,1.1l-0.6,1h-1.2h-1.2h-1.1
			h-1.2h-1.2h-1.2H738h-1.2h-1.2h-1.2h-1.1h-1.2H731h-1.2h-1.1h-1.2h-1.2h-1.2h-1.1h-1.2h-1.2V618v-1.2v-1.2v-1.2v-1.2V612v-1.2
			v-1.2v-1.2v-1.2v-1.2v-1.2v-1.2v-1.2v-1.2v-1.2v-1.2v-1.2v-1.1v-1.2v-1.2V593v-1.2v-1.2v-1.2v-1.2V587v-1.2v-1.2v-1.2v-1.2v-1.2
			v-1.2v-1.2v-1.2v-1.2v-1.2v-1.2v-1.2v-1.2v-1.2v-1.2v-1.2v-1.2v-1.2v-1.2v-1.2V562v-1.2v-1.2v-1.2v-1.2V556v-1.2v-1.1v-1.2v-1.2
			v-1.2v-1.2v-1.2v-1.2v-1.2v-1.2v-1.2v-1.2v-1.2v-1.2v-1.2V537v-1.2v-1.2v-1.2v-1.2H722.9z M861,568l0.4,1.1l0.5,1.2l0.5,1.1
			l0.4,1.1l0.5,1.1l0.5,1.2l0.4,1.1l0.5,1.1l0.5,1.1l0.4,1.1l0.5,1.2l0.4,1.1l0.5,1.1l0.5,1.1l0.4,1.1l0.5,1.2l0.5,1.1l0.4,1.1
			l0.5,1.1l0.5,1.2l0.4,1.1l0.5,1.1l0.5-1.1l0.4-1.1l0.5-1.2l0.5-1.1l0.4-1.1l0.5-1.1l0.5-1.2l0.5-1.1l0.4-1.1l0.5-1.1l0.5-1.1
			l0.4-1.2l0.5-1.1l0.5-1.1l0.4-1.1l0.5-1.1l0.5-1.2l0.5-1.1l0.4-1.1l0.5-1.1l0.5-1.2l0.4-1.1l0.5-1.1h-1.2h-1.2h-1.2h-1.2h-1.2
			h-1.2h-1.2h-1.2h-1.1h-1.2h-1.2h-1.2h-1.2h-1.2h-1.2h-1.2h-1.2L861,568z M823.6,532.2h1.2h1.1h1.2h1.2h1.2h1.2h1.1h1.2h1.2h1.2
			h1.2h1.2h1.1h1.2h1.2h1.2h1.2h1.1h1.2h1.2l0.5,1.1l0.4,1.1l0.5,1.1l0.5,1.2l0.4,1.1l0.5,1.1l0.5,1.1l0.4,1.1l0.5,1.1l0.5,1.1
			l0.4,1.1l0.5,1.2l0.5,1.1l0.4,1.1l0.5,1.1h1.2h1.2h1.2h1.2h1.1h1.2h1.2h1.2h1.2h1.2h1.2h1.2h1.2h1.2h1.1h1.2h1.2h1.2h1.2h1.2h1.2
			h1.2h1.2h1.2h1.1h1.2h1.2h1.2h1.2l0.5-1.1l0.4-1.1l0.5-1.1l0.5-1.2l0.4-1.1l0.5-1.1l0.5-1.1l0.4-1.1l0.5-1.1l0.5-1.1l0.4-1.1
			l0.5-1.2l0.5-1.1l0.4-1.1l0.5-1.1h1.2h1.2h1.2h1.2h1.2h1.3h1.2h1.2h1.2h1.2h1.2h1.2h1.2h1.2h1.2h1.3h1.2h1.2h1.2h1.2l-0.5,1.1
			l-0.5,1.1l-0.5,1.1l-0.5,1.2l-0.4,1.1l-0.5,1.1l-0.5,1.1l-0.5,1.1l-0.5,1.1l-0.5,1.2l-0.5,1.1l-0.5,1.1l-0.4,1.1l-0.5,1.1
			l-0.5,1.1l-0.5,1.2l-0.5,1.1l-0.5,1.1l-0.5,1.1l-0.5,1.1l-0.4,1.1l-0.5,1.2l-0.5,1.1l-0.5,1.1l-0.5,1.1l-0.5,1.1l-0.5,1.1
			l-0.5,1.2l-0.4,1.1l-0.5,1.1l-0.5,1.1l-0.5,1.1l-0.5,1.1l-0.5,1.2l-0.5,1.1l-0.5,1.1l-0.4,1.1l-0.5,1.1l-0.5,1.1l-0.5,1.2
			l-0.5,1.1l-0.5,1.1l-0.5,1.1l-0.5,1.1l-0.4,1.1l-0.5,1.1l-0.5,1.2l-0.5,1.1l-0.5,1.1l-0.5,1.1l-0.5,1.1l-0.5,1.1l-0.4,1.2
			l-0.5,1.1l-0.5,1.1l-0.5,1.1l-0.5,1.1l-0.5,1.1l-0.5,1.2l-0.5,1.1l-0.4,1.1l-0.5,1.1l-0.5,1.1l-0.5,1.1l-0.5,1.2l-0.5,1.1
			l-0.5,1.1l-0.5,1.1l-0.3,1.1l-0.5,1.1l-0.5,1.2l-0.5,1.1l-0.5,1.1l-0.5,1.1l-0.5,1.1l-0.5,1.1l-0.4,1.2l-0.5,1.1l-0.5,1.1
			l-0.5,1.1h-1.2h-1.1h-1.2h-1.2h-1.2h-1.1h-1.2h-1.2h-1.2h-1.1h-1.2h-1.2h-1.2h-1.1H864h-1.2h-1.2h-1.1h-1.2l-0.5-1.1l-0.5-1.1
			l-0.5-1.1l-0.5-1.2l-0.4-1.1l-0.5-1.1l-0.5-1.1l-0.5-1.1l-0.5-1.1l-0.5-1.2l-0.5-1.1l-0.5-1.1l-0.3-1.1l-0.5-1.1l-0.5-1.1
			l-0.5-1.2l-0.5-1.1l-0.5-1.1l-0.5-1.1l-0.5-1.1l-0.4-1.1l-0.5-1.2l-0.5-1.1l-0.5-1.1l-0.5-1.1l-0.5-1.1l-0.5-1.1l-0.5-1.2L846,588
			l-0.5-1.1l-0.5-1.1l-0.5-1.1l-0.5-1.1l-0.5-1.2l-0.5-1.1l-0.5-1.1l-0.4-1.1l-0.5-1.1l-0.5-1.1l-0.5-1.1l-0.5-1.2l-0.5-1.1
			l-0.5-1.1l-0.5-1.1l-0.4-1.1l-0.5-1.1l-0.5-1.2l-0.5-1.1l-0.5-1.1l-0.5-1.1l-0.5-1.1l-0.5-1.1l-0.4-1.2l-0.5-1.1l-0.5-1.1
			l-0.5-1.1l-0.5-1.1l-0.5-1.1l-0.5-1.2l-0.5-1.1l-0.3-1.1l-0.5-1.1l-0.5-1.1l-0.5-1.1l-0.5-1.2l-0.5-1.1l-0.5-1.1l-0.5-1.1
			l-0.4-1.1l-0.5-1.1l-0.5-1.2l-0.5-1.1l-0.5-1.1l-0.5-1.1l-0.5-1.1l-0.5-1.1l-0.4-1.2l-0.5-1.1l-0.5-1.1l-0.5-1.1H823.6z
			 M927.9,543.3l1-0.7l0.8-0.6l1-0.7l0.9-0.6l1-0.7l1-0.6l0.9-0.6l1.1-0.6l1.1-0.6l1.1-0.6l1.1-0.5l1.1-0.6l1.2-0.5l1.1-0.5l1.2-0.5
			l1.1-0.5l1.1-0.4l1.1-0.4l1.1-0.4l1.2-0.4l1.1-0.4l1.2-0.2l1.1-0.2l1.2-0.2l1.2-0.2l1.2-0.1l1.3-0.1l1.2-0.1l1.3-0.1l1.2-0.1
			l1.3-0.1h1.3h1.3h1.3h1.2l1.2,0.1l1.3,0.1l1.2,0.1l1.2,0.1l1.2,0.1l1.2,0.2l1.2,0.2l1.1,0.2l1.2,0.2l1.1,0.4l1.2,0.2l1.1,0.4
			l1.1,0.5l1.1,0.4l1.2,0.5l1.1,0.5l1.1,0.5l1.1,0.5l1.1,0.6l0.9,0.6l1.1,0.6l1,0.6l0.9,0.6l1,0.7l0.9,0.7l1,0.7l0.8,0.7l0.8,0.7
			l0.8,0.8l0.8,0.7l0.8,0.8l0.8,0.8l0.7,0.8l0.7,1l0.7,0.8l0.6,1l0.7,1l0.6,1l0.6,1l0.6,1.1l0.6,1l0.5,1.1l0.5,1.1l0.5,1.1l0.5,1.1
			l0.4,1l0.5,1.1l0.2,1.1l0.4,1.1l0.2,1.2l0.4,1.1l0.2,1.2l0.1,1.1l0.2,1.2l0.1,1.1l0.1,1.2l0.1,1.2l0.1,1.2v1.3v1.2v0.2v1.2
			l-0.1,1.3v1.2l-0.1,1.2l-0.1,1.3l-0.2,1.2l-0.1,1.2l-0.2,1.1l-0.4,1.2l-0.2,1.2l-0.4,1.1l-0.4,1.2l-0.4,1.1l-0.5,1.2l-0.5,1.1
			l-0.5,1.1l-0.5,1.1l-0.5,1.1l-0.6,1.1l-0.6,1l-0.6,1l-0.6,1l-0.6,1l-0.7,1l-0.7,1l-0.7,1l-0.7,0.8l-0.8,0.8l-0.7,0.8l-0.8,0.8
			l-0.8,0.8l-0.8,0.7l-1,0.8l-0.8,0.7l-0.9,0.7l-1,0.6l-0.9,0.7l-1,0.6l-0.9,0.6l-1.1,0.6l-1.1,0.6l-1.1,0.6l-1.1,0.5l-1.1,0.5
			l-1.2,0.6l-0.9,0.4l-1.2,0.4l-1.1,0.5l-1.1,0.2l-1.1,0.4l-1.2,0.2l-1.1,0.4l-1.2,0.2l-1.2,0.1l-1.2,0.2l-1.2,0.1l-1.2,0.1
			l-1.2,0.1l-1.2,0.1h-1.3h-1.2h-1.3h-1.3l-1.3-0.1l-1.3-0.1h-1.2l-1.2-0.1l-1.3-0.2l-1.1-0.1l-1.2-0.2l-1.2-0.2l-1.1-0.2l-1.1-0.2
			l-1.1-0.2l-1.1-0.4l-1.1-0.2l-0.9-0.4l-1.1-0.4l-1.1-0.5l-1.1-0.5l-1.1-0.5l-1.1-0.6l-1.1-0.5l-1-0.6l-1.1-0.6l-0.9-0.6l-1.1-0.6
			l-0.9-0.7l-1-0.6l-1-0.7l-0.9-0.7l-1-0.8l-0.9-0.7l0.7-1l0.8-0.8l0.7-1l0.8-1l0.7-1l0.7-0.8l0.8-1l0.7-1l0.7-0.8l0.8-1l0.7-1
			l0.8-1l0.7-0.8l0.7-1l0.8-1l0.7-1l0.8-0.8l0.7-1l1,0.7l0.9,0.8l1,0.6l0.9,0.7l1,0.6l1,0.6l1,0.6l1.1,0.6l1,0.5l1,0.5l1,0.4
			l1.1,0.4l1.1,0.4l1.1,0.2l1.2,0.2l1.2,0.2l1.2,0.1l1.3,0.1l1.3,0.1h1.3h1.2l1.2-0.1l1.1-0.1l1.2-0.2l1.1-0.2l1.1-0.4l1.1-0.4
			l1.1-0.5l1.1-0.5l1-0.6l0.9-0.6l1-0.6l0.8-0.7l0.8-0.7l0.8-0.7l0.7-0.8l0.8-0.8l0.7-1l0.6-0.8l0.6-1l0.6-1.1l0.6-1l0.5-1.1
			l0.4-1.1l0.5-1.1l0.4-1.2l0.2-1.2l0.2-1.1l0.2-1.3l0.1-1.2l0.1-1.2v-1.3v-0.2v-1.2l-0.1-1.2l-0.1-1.1l-0.1-1.2l-0.2-1.1l-0.2-1.1
			l-0.2-1.1l-0.4-1.1l-0.4-1l-0.5-1.2l-0.5-1.1l-0.6-1.1l-0.6-1l-0.6-1l-0.7-1l-0.7-0.8l-0.8-0.8l-0.7-0.8l-0.8-0.7l-1-0.7l-0.9-0.7
			l-0.9-0.6l-1-0.6l-1.1-0.5l-1.1-0.5l-1.1-0.5l-1.2-0.4l-1.2-0.4l-1.2-0.2l-1.2-0.2l-1.2-0.1l-1.3-0.1h-1.3h-1.4l-1.3,0.1l-1.3,0.1
			l-1.2,0.1l-1.2,0.2l-1.2,0.2l-1.2,0.4l-1.1,0.2l-1.1,0.5l-1,0.5l-1.1,0.5l-0.8,0.5l-1,0.6v1.2v1.2v1.2v1.2v1.3v1.2v1.2v1.2v1.2
			h1.2h1.1h1.2h1.2h1.2h1.1h1.2h1.2h1.2h1.1h1.2h1.2h1.2h1.1h1.2v1.2v1.1v1.2v1.2v1.2v1.1v1.2v1.2v1.2v1.1v1.2v1.2v1.2v1.1v1.2h-1.2
			H964h-1.2h-1.2h-1.2h-1.2H958h-1.2h-1.2h-1.2h-1.2h-1.2h-1.2h-1.2h-1.2h-1.2h-1.2h-1.2h-1.2h-1.2h-1.2h-1.2H939h-1.2h-1.2h-1.2
			h-1.2H933h-1.2h-1.2h-1.2h-1.2h-1.2v-1.2v-1.2v-1.2v-1.1V577v-1.2v-1.2v-1.2v-1.2v-1.1V570v-1.2v-1.2v-1.2v-1.2V564v-1.1v-1.2
			v-1.2v-1.2v-1.2v-1.2v-1.2v-1.1v-1.2v-1.2v-1.2v-1.2v-1.2v-1.1v-1.2v-1.2V544L927.9,543.3z"/>
		<path class="st2" d="M966.2,816.1h-51.6V856h51.6v81.4h-53.6v39.9h97.4V689.4h-98.2v39.9h54.4V816.1z"/>
		<path class="st2" d="M596.7,807.4v-65c0-11.5,5.3-16.9,16.4-16.9h8.2c11.5,0,16.8,5.3,16.8,16.9v181.8c0,11.5-5.3,16.9-16.8,16.9
			h-7.4c-11.1,0-16.4-5.3-16.4-16.9v-56.4h-43v58.8c0,35.8,17.2,53.1,52.8,53.1h21.3c35.6,0,53.2-17.7,53.2-53.5V740.4
			c0-35.8-17.6-53.5-53.2-53.5H607c-35.6,0-53.2,17.7-53.2,53.5v67H596.7z"/>
		<path class="st2" d="M748.8,689.4H705v287.9h43.8V689.4z"/>
		<path class="st2" d="M812.4,849.4c0-11.5,5.3-16.9,16.4-16.9h18v106.1h-18c-11.1,0-16.4-5.3-16.4-16.9V849.4z M821.8,977.3h68.8
			V689.4h-43.8v104.5h-25c-35.6,0-53.2,17.7-53.2,53.5v76.5C768.6,959.6,786.2,977.3,821.8,977.3"/>
		<path class="st1" d="M906.6,429H655.9l128-42.2L906.6,429z"/>

</g>
<g>
	<defs>
		<rect id="SVGID_3_" x="458.3" y="90.1" width="647.2" height="751"/>
	</defs>
	<clipPath id="SVGID_4_">
		<use xlink:href="#SVGID_3_"  style="overflow:visible;"/>
	</clipPath>
	<g class="st3">
		<path class="st4" d="M1046.7,90.1H517c-42.9,0-58.8,15.8-58.8,58.8v518.2c0,4.9,0.2,9.4,0.6,13.6c1,9.4,1.2,18.5,9.9,28.8
			c0.9,1,9.8,7.6,9.8,7.6c4.8,2.3,8.1,4.1,13.5,6.3l260.8,109.3c13.5,6.2,19.2,8.6,29,8.4v0c0,0,0,0,0,0c0,0,0,0,0,0v0
			c9.8,0.2,15.5-2.2,29-8.4l260.8-109.3c5.4-2.2,8.7-3.9,13.5-6.3c0,0,8.9-6.6,9.8-7.6c8.7-10.3,8.9-19.4,9.9-28.8
			c0.4-4.2,0.6-8.7,0.6-13.6V148.9C1105.4,106,1089.6,90.1,1046.7,90.1z"/>
		<path class="st5" d="M1011.2,611.2l-0.1,1.2l-0.1,1.3l-0.2,1.2l-0.4,1.2l-0.2,1.1l-0.4,1.2l-0.5,1.1l-0.5,1l-0.5,1.1l-0.6,1
			l-0.6,1l-0.7,1l-0.6,1l-0.7,0.8l-0.8,0.8l-0.7,0.7l-1,0.8l-0.8,0.7l-1,0.7l-1,0.6l-0.9,0.7l-1.1,0.6l-1.1,0.5l-1.1,0.6l-1.2,0.5
			l-1.2,0.5l-1.2,0.4l-1.2,0.4l-1.1,0.4l-1.2,0.2l-1.1,0.2l-1.1,0.2l-1.2,0.2l-1.2,0.1l-1.1,0.1l-1.2,0.1l-1.3,0.1l-1.2,0.1h-1.2
			h-1.3h-1.3h-1.2l-1.2-0.1h-1.3l-1.2-0.1l-1.2-0.1l-1.3-0.1l-1.2-0.2l-1.2-0.1l-1.2-0.2l-1.2-0.2l-1.2-0.2l-1.2-0.2l-1.2-0.4
			l-1.1-0.2l-1.2-0.4l-1.2-0.4l-1.1-0.5l-1.2-0.4l-1.1-0.4l-1.2-0.5l-1.1-0.5l-1.1-0.5l-1.1-0.6l-1.1-0.5l-1.1-0.6l-0.9-0.6
			l-1.1-0.6l-1-0.6l-1-0.6l-0.9-0.7l-0.9-0.7l-1-0.7l-1-0.7l-0.8-0.7l-0.9-0.8l0.7-1l0.8-0.8l0.7-1l0.8-1l0.7-0.8l0.7-1l0.8-1
			l0.7-0.8l0.8-1l0.7-0.8l0.8-1l0.7-1l0.7-0.8l0.8-1l0.7-1l0.8-0.8l0.7-1l0.9,0.7l1.1,0.7l1,0.7l1.1,0.7l1,0.6l1.1,0.7l0.9,0.6
			l1.1,0.5l0.9,0.6l1.1,0.5l1.1,0.5l1.1,0.5l1.1,0.4l1.1,0.5l1.2,0.4l1.2,0.4l1.1,0.4l1.2,0.2l1.2,0.2l1.2,0.2l1.3,0.1l1.2,0.2h1.2
			l1.3,0.1h1.2h1.4l1.3-0.1l1.2-0.2l1.1-0.2l1.1-0.2l1-0.4l0.8-0.5l1-0.7l0.7-0.8l0.5-1l0.4-1.1l0.1-1.2v-0.2L988,609l-0.5-1.2
			l-0.6-0.8l-0.8-0.7l-1-0.7l-0.9-0.5l-1.1-0.5l-1.2-0.5l-1.4-0.6l-0.8-0.2l-0.9-0.2l-1.1-0.4l-1.1-0.2l-1.2-0.4l-1.2-0.2l-1.3-0.4
			l-1.2-0.2l-1.3-0.4l-1.2-0.2l-1.2-0.4l-1.2-0.2l-1.2-0.4l-1.1-0.4l-1.2-0.2l-1.1-0.4l-1.1-0.4l-1.1-0.4l-1.3-0.5l-1.2-0.5
			l-1.2-0.5l-1.2-0.5l-1.1-0.6l-1.2-0.6l-1-0.6l-1.1-0.6L950,593l-1-0.6l-0.8-0.7l-0.8-0.8l-0.8-0.8l-0.7-0.8l-0.7-0.8l-0.6-0.8
			l-0.6-1l-0.6-1.1l-0.5-0.8l-0.4-1l-0.3-1.1l-0.4-1l-0.2-1.2l-0.2-1.1l-0.1-1.2l-0.1-1.2l-0.1-1.3v-1.3v-0.2v-1.2l0.1-1.2l0.1-1.1
			l0.1-1.2l0.2-1.1l0.2-1.1l0.4-1.1l0.2-1.1l0.5-1.1l0.5-1.1l0.5-1.1l0.6-1.1l0.6-1.1l0.7-1l0.7-1l0.8-1l0.8-0.8l0.8-1l1-0.8
			l0.8-0.6l1-0.7l1-0.7l0.9-0.6l1.1-0.6l1.1-0.5l1.1-0.6l1.1-0.5l1.2-0.4l1.2-0.5l1.1-0.4l0.9-0.2l1.1-0.2l1.1-0.2l1.2-0.2l1.1-0.2
			l1.2-0.1l1.2-0.1l1.2-0.1l1.2-0.1h1.2h1.3h1.3h1.3l1.3,0.1l1.3,0.1h1.2l1.3,0.1l1.2,0.2l1.3,0.1l1.2,0.2l1.1,0.2l1.2,0.2l1.2,0.2
			l1.1,0.2l1.2,0.4l1.1,0.4l1.1,0.2l1.2,0.5l1.1,0.4l1.1,0.5l1.1,0.5l1.2,0.5l1.1,0.6l1,0.5l1.1,0.6l1.1,0.6l0.9,0.6l1.1,0.7l1,0.6
			l1,0.7l0.9,0.7l0.9,0.7l-0.7,1l-0.6,1l-0.7,1l-0.7,1l-0.7,1.1l-0.6,1l-0.7,1l-0.7,1l-0.6,1l-0.7,1l-0.7,1l-0.6,1l-0.7,1.1l-0.7,1
			l-0.7,1l-0.6,1l-0.7,1l-1-0.7l-1.1-0.6l-0.9-0.6l-1-0.7l-1.1-0.5l-1-0.6l-1.1-0.5l-0.9-0.5l-1.1-0.5l-0.9-0.5l-1.1-0.4l-1-0.5
			l-1.3-0.4l-1.2-0.4l-1.2-0.4l-1.2-0.2l-1.2-0.2l-1.2-0.2l-1.2-0.1l-1.2-0.1l-1.1-0.1h-1.2h-1.4l-1.3,0.2l-1.2,0.2l-1.1,0.2
			l-0.9,0.5l-0.8,0.5l-1.1,1l-0.7,1.1l-0.5,1.1l-0.1,1.2v0.2l0.1,1.6l0.6,1.3l0.5,0.7l0.8,0.8l1.1,0.6l0.9,0.6l1.2,0.5l1.3,0.5
			l1.4,0.5l0.9,0.2l1,0.4l1.1,0.2l1.1,0.4l1.2,0.2l1.3,0.4l1.3,0.4l1.3,0.4l1.3,0.2l1.2,0.4l1.3,0.4l1.2,0.2l1.2,0.4l1.2,0.4
			l1.1,0.4l1.2,0.4l1.1,0.4l1.1,0.4l1.3,0.5l1.2,0.6l1.2,0.5l1.2,0.6l1.1,0.6l1.1,0.6l0.9,0.6l1,0.7l1,0.6l0.9,0.8l1,0.8l0.8,1
			l0.8,0.8l0.7,1l0.7,1.1l0.6,1l0.6,1.1l0.5,1l0.4,1.1l0.4,1.1l0.2,1.1l0.2,1.2l0.2,1.2l0.1,1.2l0.1,1.3v1.3v0.2v1.3L1011.2,611.2z
			 M927.7,635.1h-1.2h-1.2h-1.2H923h-1.2h-1.2h-1.2h-1.2h-1.3h-1.2h-1.2h-1.2h-1.2H911h-1.2h-1.2h-1.2h-1.2H905h-1.2h-1.2h-1.2h-1.2
			h-1.2h-1.2h-1.2h-1.2h-1.2H893h-1.2h-1.2h-1.2h-1.2H887h-1.2h-1.2h-1.2h-1.2h-1.2h-1.2h-1.2h-1.2h-1.2h-1.2H874h-1.2h-1.2h-1.3
			h-1.2h-1.2h-1.2h-1.2h-1.2h-1.2h-1.2h-1.2h-1.2v-1.2v-1.2v-1.2v-1.2v-1.2v-1.2v-1.2v-1.2v-1.2v-1.2v-1.2v-1.2v-1.2v-1.2v-1.2v-1.2
			v-1.2v-1.2v-1.1v-1.2v-1.2v-1.2v-1.2v-1.2v-1.2v-1.2v-1.2v-1.2v-1.2v-1.2v-1.2v-1.2v-1.2v-1.2v-1.2v-1.2v-1.2v-1.2v-1.2v-1.2v-1.2
			V585v-1.2v-1.2v-1.2v-1.2V579v-1.2v-1.2v-1.2v-1.2V573v-1.2v-1.2v-1.1v-1.2v-1.2V566v-1.2v-1.2v-1.2v-1.2V560v-1.2v-1.2v-1.2v-1.2
			V554v-1.2v-1.2v-1.2v-1.2V548h1.2h1.2h1.2h1.2h1.2h1.2h1.2h1.2h1.2h1.2h1.2h1.2h1.2h1.2h1.1h1.2h1.2h1.2h1.2h1.2h1.2h1.2h1.2h1.2
			h1.2h1.2h1.2h1.2h1.2h1.2h1.2h1.2h1.2h1.2h1.2h1.2h1.2h1.2h1.2h1.2h1.2h1.2h1.2h1.1h1.2h1.2h1.2h1.2h1.2h1.2h1.2h1.2h1.2h1.2h1.2
			h1.2h1.2h1.2v1.2v1.1v1.2v1.2v1.2v1.1v1.2v1.2v1.1v1.2v1.2v1.1v1.2v1.2v1.2v1.1v1.2h-1.2H926h-1.2h-1.2h-1.2h-1.2h-1.1h-1.2h-1.2
			h-1.2h-1.2h-1.2H913h-1.2h-1.2h-1.2h-1.2H907h-1.2h-1.1h-1.2h-1.2h-1.2H900h-1.2h-1.2h-1.2h-1.2h-1.2h-1.2h-1.2h-1.2h-1.1h-1.2
			H887h-1.2h-1.2h-1.2h-1.2v1.2v1.2v1.2v1.2v1.2v1.1v1.2v1.2v1.2v1.2v1.2v1.2h1.2h1.2h1.2h1.2h1.2h1.2h1.2h1.2h1.1h1.2h1.2h1.2h1.2
			h1.2h1.2h1.2h1.2h1.2h1.2h1.2h1.2h1.2h1.2h1.2h1.2h1.2h1.1h1.2h1.2h1.2h1.2h1.2h1.2h1.2h1.2v1.2v1.1v1.2v1.2v1.1v1.2v1.2v1.1v1.2
			v1.2v1.2v1.1v1.2v1.2v1.1v1.2h-1.2h-1.2h-1.2h-1.2h-1.2h-1.2h-1.2h-1.2h-1.1h-1.2h-1.2h-1.2h-1.2h-1.2H906h-1.2h-1.2h-1.2h-1.2
			H900h-1.2h-1.2h-1.2h-1.2h-1.2h-1.2h-1.1h-1.2h-1.2h-1.2H887h-1.2h-1.2h-1.2h-1.2v1.2v1.3v1.2v1.2v1.3v1.2v1.2v1.3v1.2v1.2v1.3
			v1.2h1.2h1.2h1.2h1.2h1.2h1.2h1.2h1.2h1.2h1.3h1.2h1.2h1.2h1.2h1.2h1.2h1.2h1.2h1.2h1.2h1.2h1.2h1.2h1.2h1.2h1.2h1.2h1.2h1.2h1.3
			h1.2h1.2h1.2h1.2h1.2h1.2h1.2h1.2h1.2v1.2v1.1v1.2v1.2v1.2v1.1v1.2v1.2v1.1v1.2v1.2v1.1v1.2v1.2v1.2v1.1v1.2H927.7z M840.8,635.1
			h-1.2h-1.2h-1.3h-1.2h-1.2h-1.2h-1.2h-1.2h-1.3h-1.2h-1.2h-1.2h-1.2h-1.2h-1.3h-1.2h-1.2H819v-1.2v-1.2v-1.2v-1.2v-1.2v-1.2v-1.2
			v-1.2v-1.2v-1.2v-1.2v-1.2v-1.2v-1.2v-1.2v-1.2v-1.2v-1.2v-1.2v-1.2v-1.2v-1.2v-1.2v-1.2v-1.2v-1.2v-1.2v-1.2v-1.2v-1.2V598v-1.2
			v-1.2v-1.2v-1.2V592v-1.2v-1.2v-1.2v-1.2V586v-1.2v-1.2l-0.6,1l-0.7,1.1l-0.6,1l-0.7,1l-0.6,1.1l-0.7,1l-0.6,1l-0.6,1.1l-0.7,1
			l-0.6,1l-0.7,1l-0.6,1.1l-0.7,1l-0.6,1l-0.6,1.1l-0.7,1l-0.6,1l-0.7,1.1l-0.6,1l-0.7,1l-0.6,1.1l-0.6,1l-0.7,1l-0.6,1.1l-0.7,1
			l-0.6,1l-0.7,1l-0.6,1.1l-0.6,1l-0.7,1l-0.6,1.1l-0.7,1l-0.6,1l-0.7,1.1l-0.6,1h-0.5l-0.7-1.1l-0.6-1l-0.7-1.1l-0.6-1l-0.7-1.1
			l-0.6-1l-0.7-1.1l-0.6-1l-0.7-1.1l-0.6-1l-0.7-1.1l-0.6-1l-0.7-1.1l-0.6-1l-0.7-1.1l-0.6-1l-0.7-1.1l-0.7-1l-0.6-1.1l-0.7-1
			l-0.6-1.1l-0.7-1l-0.6-1.1l-0.7-1l-0.6-1.1l-0.7-1l-0.6-1.1l-0.7-1l-0.6-1.1l-0.7-1l-0.6-1.1l-0.7-1l-0.6-1.1l-0.7-1v1.2v1.2v1.2
			v1.2v1.2v1.2v1.2v1.2v1.2v1.2v1.1v1.2v1.2v1.2v1.2v1.2v1.2v1.2v1.2v1.2v1.2v1.2v1.2v1.2v1.2v1.2v1.2v1.2v1.2v1.2v1.2v1.2v1.1v1.2
			v1.2v1.2v1.2v1.2v1.2v1.2v1.2v1.2v1.2h-1.2h-1.2H770h-1.2h-1.2h-1.2h-1.2H764h-1.2h-1.2h-1.2h-1.2h-1.2h-1.2h-1.2h-1.2h-1.2h-1.2
			h-1.2v-1.2v-1.2v-1.2v-1.2v-1.2v-1.2v-1.2v-1.2v-1.2v-1.2v-1.2v-1.2v-1.2v-1.2v-1.2v-1.2v-1.2v-1.2v-1.1v-1.2v-1.2v-1.2v-1.2v-1.2
			v-1.2v-1.2v-1.2v-1.2v-1.2v-1.2v-1.2v-1.2v-1.2v-1.2v-1.2v-1.2v-1.2v-1.2v-1.2v-1.2v-1.2V585v-1.2v-1.2v-1.2v-1.2V579v-1.2v-1.2
			v-1.2v-1.2V573v-1.2v-1.2v-1.1v-1.2v-1.2V566v-1.2v-1.2v-1.2v-1.2V560v-1.2v-1.2v-1.2v-1.2V554v-1.2v-1.2v-1.2v-1.2V548h1.2h1.2
			h1.1h1.2h1.2h1.2h1.1h1.2h1.2h1.2h1.1h1.2h1.2h1.2h1.1h1.2h1.2h1.2h1.1h1.2h1.2l0.6,1l0.6,1.1l0.7,0.9l0.6,1.1l0.6,1l0.6,1.1
			l0.6,0.9l0.7,1.1l0.6,1l0.6,1l0.6,1.1l0.6,1l0.7,1.1l0.6,1l0.6,1.1l0.6,1l0.7,1l0.6,1.1l0.6,1l0.6,1.1l0.6,1l0.7,1.1l0.6,1
			l0.6,1.1l0.6,0.9l0.6,1l0.7,1.1l0.6,1l0.6,1.1l0.6,0.9l0.6,1.1l0.7,1l0.6,1.1l0.6,1l0.6-1l0.6-1.1l0.7-1l0.6-1.1l0.6-0.9l0.6-1.1
			l0.7-1l0.6-1.1l0.6-1l0.6-0.9l0.7-1.1l0.6-1l0.6-1.1l0.6-1l0.7-1.1l0.6-1l0.6-1.1l0.6-1l0.6-1l0.7-1.1l0.6-1l0.6-1.1l0.6-1
			l0.7-1.1l0.6-1l0.6-1l0.6-1.1l0.7-0.9l0.6-1.1l0.6-1l0.6-1.1l0.7-0.9l0.6-1.1l0.6-1h1.2h1.2h1.1h1.2h1.2h1.2h1.1h1.2h1.2h1.2h1.1
			h1.2h1.2h1.2h1.1h1.2h1.2h1.2h1.1h1.2h1.2v1.2v1.2v1.2v1.2v1.2v1.2v1.2v1.2v1.2v1.2v1.2v1.2v1.2v1.2v1.2v1.2v1.2v1.2v1.1v1.2v1.2
			v1.2v1.2v1.2v1.2v1.2v1.2v1.2v1.2v1.2v1.2v1.2v1.2v1.2v1.2v1.2v1.2v1.2v1.2v1.2v1.2v1.2v1.2v1.2v1.2v1.2v1.2v1.2v1.2v1.2v1.2v1.2
			v1.2v1.2v1.1v1.2v1.2v1.2v1.2v1.2v1.2v1.2v1.2v1.2v1.2v1.2v1.2v1.2v1.2v1.2v1.2v1.2v1.2H840.8z M702.7,599.2l-0.4-1.1l-0.5-1.2
			l-0.5-1.1l-0.4-1.1l-0.5-1.1l-0.5-1.2l-0.4-1.1l-0.5-1.1l-0.5-1.1l-0.4-1.1l-0.5-1.2l-0.4-1.1l-0.5-1.1l-0.5-1.1l-0.4-1.1
			l-0.5-1.2l-0.5-1.1l-0.4-1.1l-0.5-1.1L694,577l-0.4-1.1l-0.5-1.1l-0.5,1.1l-0.4,1.1l-0.5,1.2l-0.5,1.1l-0.4,1.1l-0.5,1.1l-0.5,1.2
			l-0.5,1.1l-0.4,1.1l-0.5,1.1l-0.5,1.1l-0.4,1.2l-0.5,1.1l-0.5,1.1l-0.4,1.1l-0.5,1.1l-0.5,1.2l-0.5,1.1l-0.4,1.1l-0.5,1.1
			l-0.5,1.2l-0.4,1.1l-0.5,1.1h1.2h1.2h1.2h1.2h1.2h1.2h1.2h1.2h1.1h1.2h1.2h1.2h1.2h1.2h1.2h1.2h1.2L702.7,599.2z M740.1,635.1
			h-1.2h-1.1h-1.2h-1.2h-1.2h-1.2H732h-1.2h-1.2h-1.2h-1.2H726H725h-1.2h-1.2h-1.2h-1.2h-1.1h-1.2h-1.2l-0.5-1.1l-0.4-1.1l-0.5-1.1
			l-0.5-1.2l-0.4-1.1l-0.5-1.1l-0.5-1.1l-0.4-1.1l-0.5-1.1l-0.5-1.1l-0.4-1.1l-0.5-1.2l-0.5-1.1l-0.4-1.1l-0.5-1.1H709h-1.2h-1.2
			h-1.2h-1.1h-1.2H702h-1.2h-1.2h-1.2h-1.2h-1.2h-1.2h-1.2h-1.1h-1.2h-1.2H689h-1.2h-1.2h-1.2h-1.2h-1.2h-1.2h-1.1h-1.2h-1.2h-1.2
			h-1.2l-0.5,1.1l-0.4,1.1l-0.5,1.1l-0.5,1.2l-0.4,1.1l-0.5,1.1l-0.5,1.1l-0.4,1.1l-0.5,1.1l-0.5,1.1l-0.4,1.1l-0.5,1.2l-0.5,1.1
			L670,634l-0.5,1.1h-1.2h-1.2h-1.2h-1.2h-1.2h-1.3h-1.2h-1.2h-1.2h-1.2h-1.2h-1.2h-1.2h-1.2h-1.2h-1.3H649h-1.2h-1.2h-1.2l0.5-1.1
			l0.5-1.1l0.5-1.1l0.5-1.2l0.4-1.1l0.5-1.1l0.5-1.1l0.5-1.1l0.5-1.1l0.5-1.2l0.5-1.1l0.5-1.1l0.4-1.1l0.5-1.1l0.5-1.1l0.5-1.2
			l0.5-1.1l0.5-1.1l0.5-1.1l0.5-1.1l0.4-1.1l0.5-1.2l0.5-1.1l0.5-1.1l0.5-1.1l0.5-1.1l0.5-1.1l0.5-1.2l0.4-1.1l0.5-1.1l0.5-1.1
			l0.5-1.1l0.5-1.1l0.5-1.2l0.5-1.1l0.5-1.1l0.4-1.1l0.5-1.1l0.5-1.1l0.5-1.2l0.5-1.1l0.5-1.1l0.5-1.1l0.5-1.1l0.4-1.1l0.5-1.1
			l0.5-1.2l0.5-1.1l0.5-1.1l0.5-1.1l0.5-1.1l0.5-1.1l0.4-1.2l0.5-1.1l0.5-1.1l0.5-1.1l0.5-1.1l0.5-1.1l0.5-1.2l0.5-1.1l0.4-1.1
			l0.5-1.1l0.5-1.1l0.5-1.1l0.5-1.2l0.5-1.1l0.5-1.1l0.5-1.1l0.4-1.1l0.5-1.1l0.5-1.2l0.5-1.1l0.5-1.1l0.5-1.1l0.5-1.1l0.5-1.1
			l0.4-1.2l0.5-1.1l0.5-1.1l0.5-1.1h1.2h1.1h1.2h1.2h1.2h1.1h1.2h1.2h1.2h1.1h1.2h1.2h1.2h1.1h1.2h1.2h1.2h1.1h1.2l0.5,1.1l0.5,1.1
			l0.5,1.1l0.5,1.2l0.4,1.1l0.5,1.1l0.5,1.1l0.5,1.1l0.5,1.1l0.5,1.2l0.5,1.1l0.5,1.1l0.3,1.1l0.5,1.1l0.5,1.1l0.5,1.2l0.5,1.1
			l0.5,1.1l0.5,1.1l0.5,1.1l0.4,1.1l0.5,1.2l0.5,1.1l0.5,1.1l0.5,1.1l0.5,1.1l0.5,1.1l0.5,1.2l0.4,1.1l0.5,1.1l0.5,1.1l0.5,1.1
			l0.5,1.1l0.5,1.2l0.5,1.1l0.5,1.1l0.4,1.1l0.5,1.1l0.5,1.1l0.5,1.1l0.5,1.2l0.5,1.1l0.5,1.1l0.5,1.1l0.4,1.1l0.5,1.1l0.5,1.2
			l0.5,1.1l0.5,1.1l0.5,1.1l0.5,1.1l0.5,1.1l0.4,1.2l0.5,1.1l0.5,1.1l0.5,1.1l0.5,1.1l0.5,1.1l0.5,1.2l0.5,1.1l0.3,1.1l0.5,1.1
			l0.5,1.1l0.5,1.1l0.5,1.2l0.5,1.1l0.5,1.1l0.5,1.1l0.4,1.1l0.5,1.1l0.5,1.2l0.5,1.1l0.5,1.1l0.5,1.1l0.5,1.1l0.5,1.1l0.4,1.2
			l0.5,1.1l0.5,1.1l0.5,1.1H740.1z M635.8,623.9l-1,0.7l-0.8,0.6l-1,0.7l-0.9,0.6l-1,0.7l-1,0.6l-0.9,0.6l-1.1,0.6l-1.1,0.6
			l-1.1,0.6l-1.1,0.5l-1.1,0.6l-1.2,0.5l-1.1,0.5l-1.2,0.5l-1.1,0.5l-1.1,0.4l-1.1,0.4l-1.1,0.4l-1.2,0.4l-1.1,0.4l-1.2,0.2
			l-1.1,0.2l-1.2,0.2l-1.2,0.2l-1.2,0.1l-1.3,0.1l-1.2,0.1l-1.3,0.1l-1.2,0.1l-1.3,0.1h-1.3h-1.3h-1.3h-1.2l-1.2-0.1l-1.3-0.1
			l-1.2-0.1l-1.2-0.1l-1.2-0.1l-1.2-0.2l-1.2-0.2l-1.1-0.2l-1.2-0.2l-1.1-0.4l-1.2-0.2l-1.1-0.4l-1.1-0.5l-1.1-0.4l-1.2-0.5
			l-1.1-0.5l-1.1-0.5l-1.1-0.5l-1.1-0.6l-0.9-0.6l-1.1-0.6l-1-0.6l-0.9-0.6l-1-0.7l-0.9-0.7l-1-0.7l-0.8-0.7l-0.8-0.7l-0.8-0.8
			l-0.8-0.7l-0.8-0.8l-0.8-0.8l-0.7-0.8l-0.7-1l-0.7-0.8l-0.6-1l-0.7-1l-0.6-1l-0.6-1l-0.6-1.1l-0.6-1l-0.5-1.1l-0.5-1.1L556,610
			l-0.5-1.1l-0.4-1l-0.5-1.1l-0.2-1.1l-0.4-1.1l-0.2-1.2l-0.4-1.1l-0.2-1.2l-0.1-1.1l-0.2-1.2l-0.1-1.1l-0.1-1.2l-0.1-1.2l-0.1-1.2
			V593v-1.2v-0.2v-1.2l0.1-1.3v-1.2l0.1-1.2l0.1-1.3l0.2-1.2l0.1-1.2l0.2-1.1l0.4-1.2l0.2-1.2l0.4-1.1l0.4-1.2l0.4-1.1l0.5-1.2
			l0.5-1.1l0.5-1.1l0.5-1.1l0.5-1.1l0.6-1.1l0.6-1l0.6-1l0.6-1l0.6-1l0.7-1l0.7-1l0.7-1l0.7-0.8l0.8-0.8l0.7-0.8l0.8-0.8l0.8-0.8
			l0.8-0.7l1-0.8l0.8-0.7l1-0.7l1-0.6l0.9-0.7l1-0.6l0.9-0.6l1.1-0.6l1.1-0.6l1.1-0.6l1.1-0.5l1.1-0.5l1.2-0.6l0.9-0.4l1.2-0.4
			l1.1-0.5l1.1-0.2l1.1-0.4l1.2-0.2l1.1-0.4l1.2-0.2l1.2-0.1l1.2-0.2l1.2-0.1l1.2-0.1l1.2-0.1l1.2-0.1h1.3h1.2h1.3h1.3l1.3,0.1
			l1.3,0.1h1.2l1.2,0.1l1.3,0.2l1.1,0.1l1.2,0.2l1.2,0.2l1.1,0.2l1.1,0.2l1.1,0.2l1.1,0.4l1.1,0.2l1,0.4l1.1,0.4l1.1,0.5l1.1,0.5
			l1.1,0.5l1.1,0.6l1.1,0.5l1,0.6l1.1,0.6l0.9,0.6l1.1,0.6l0.9,0.7l1,0.6l1,0.7l0.9,0.7l1,0.8l0.9,0.7l-0.7,1l-0.8,0.8l-0.7,1
			l-0.8,1l-0.7,1l-0.7,0.8l-0.8,1l-0.7,1l-0.7,0.8l-0.8,1l-0.7,1l-0.8,1l-0.7,0.8l-0.7,1l-0.8,1l-0.7,1l-0.8,0.8l-0.7,1l-1-0.7
			l-0.9-0.8l-1-0.6l-0.9-0.7l-1-0.6l-1-0.6l-1-0.6l-1.1-0.6l-1-0.5l-1-0.5l-1-0.4l-1.1-0.4l-1.1-0.4l-1.1-0.2l-1.2-0.2l-1.2-0.2
			l-1.2-0.1l-1.3-0.1L600,567h-1.3h-1.2l-1.2,0.1l-1.1,0.1l-1.2,0.2l-1.1,0.2l-1.1,0.4l-1.1,0.4l-1.1,0.5l-1.1,0.5l-1,0.6l-0.9,0.6
			l-1,0.6l-0.8,0.7l-0.8,0.7l-0.8,0.7l-0.7,0.8l-0.8,0.8l-0.7,1l-0.6,0.8l-0.6,1l-0.6,1.1l-0.6,1l-0.5,1.1l-0.4,1.1l-0.5,1.1
			l-0.4,1.2l-0.2,1.2l-0.2,1.1l-0.2,1.3l-0.1,1.2l-0.1,1.2v1.3v0.2v1.2l0.1,1.2l0.1,1.1l0.1,1.2l0.2,1.1l0.2,1.1l0.2,1.1l0.4,1.1
			l0.4,1l0.5,1.2l0.5,1.1l0.6,1.1l0.6,1l0.6,1l0.7,1l0.7,0.8l0.8,0.8l0.7,0.8l0.8,0.7l1,0.7l0.9,0.7l0.9,0.6l1,0.6l1.1,0.5l1.1,0.5
			l1.1,0.5l1.2,0.4l1.2,0.4l1.2,0.2l1.2,0.2l1.2,0.1l1.3,0.1h1.3h1.4l1.3-0.1l1.3-0.1l1.2-0.1l1.2-0.2l1.2-0.2l1.2-0.4l1.1-0.2
			l1.1-0.5l1-0.5l1.1-0.5l0.8-0.5l1-0.6v-1.2v-1.2v-1.2v-1.2v-1.3v-1.2v-1.2V603v-1.2h-1.2h-1.1h-1.2h-1.2h-1.2h-1.1h-1.2h-1.2h-1.2
			h-1.1H602h-1.2h-1.2h-1.1h-1.2v-1.2v-1.1v-1.2v-1.2V596v-1.1v-1.2v-1.2v-1.2v-1.1V589v-1.2v-1.2v-1.1v-1.2h1.2h1.2h1.2h1.2h1.2
			h1.2h1.2h1.2h1.2h1.2h1.2h1.2h1.2h1.2h1.2h1.2h1.2h1.2h1.2h1.2h1.2h1.2h1.2h1.2h1.2h1.2h1.2h1.2h1.2h1.2h1.2h1.2h1.2v1.2v1.2v1.2
			v1.1v1.2v1.2v1.2v1.2v1.2v1.1v1.2v1.2v1.2v1.2v1.2v1.2v1.1v1.2v1.2v1.2v1.2v1.2v1.2v1.1v1.2v1.2v1.2v1.2v1.2v1.1v1.2v1.2v1.2
			L635.8,623.9z"/>
		<path class="st5" d="M597.6,351.2h51.6v-39.9h-51.6v-81.4h53.6v-39.9h-97.4v287.9H652V438h-54.4V351.2z"/>
		<path class="st5" d="M967,359.8v65c0,11.5-5.3,16.9-16.4,16.9h-8.2c-11.5,0-16.8-5.3-16.8-16.9V243c0-11.5,5.3-16.9,16.8-16.9h7.4
			c11.1,0,16.4,5.3,16.4,16.9v56.4h43v-58.8c0-35.8-17.2-53.1-52.8-53.1h-21.3c-35.6,0-53.2,17.7-53.2,53.5v185.9
			c0,35.8,17.6,53.5,53.2,53.5h21.7c35.6,0,53.2-17.7,53.2-53.5v-67H967z"/>
		<path class="st5" d="M814.9,477.9h43.8V189.9h-43.8V477.9z"/>
		<path class="st5" d="M751.3,317.9c0,11.5-5.3,16.9-16.4,16.9h-18V228.6h18c11.1,0,16.4,5.3,16.4,16.9V317.9z M741.9,189.9h-68.8
			v287.9h43.8V373.4h25c35.6,0,53.2-17.7,53.2-53.5v-76.5C795.1,207.6,777.5,189.9,741.9,189.9"/>
		<path class="st6" d="M657.1,738.2h250.7l-128,42.2L657.1,738.2z"/>
	</g>
</g>
<path class="st7" d="M652.9,888.6l75.9,0V911H703v77.3h-24.6V911h-25.6V888.6z"/>
<path class="st7" d="M619.9,922.1h22.4c0-8.9,1-18.6-16.2-28.9c-13.4-8-33-4.1-40.6,0.2c-12.9,7.3-16.3,17.1-16,27.7
	c0.5,17.6,13.4,21.5,25.5,26c7.8,2.9,16.7,4.7,22.5,10c2.2,2,3.1,6-1.7,7.9c-6.8,2.6-14.1,2.9-21.7-1.9c-2.6-1.7-3.4-4.3-3.4-7.1
	l-23.7-0.3c0,8.2,1.5,14.9,6.7,20.8c7.5,8.5,17.7,11,28.8,11.7c13.9,1,22.1-1.5,28.8-5.8c6.9-4.4,11.2-11.2,12.5-20.3
	c0.8-5.6,1.4-11-5-18.9c-5.7-5.5-15.5-11-27.9-14.8c-5.9-2.2-14.7-4.7-16.3-8.5c-1.6-3.3,0.9-6.6,3-7.8c3.4-1.9,8.3-1.9,12.6-0.3
	C615.1,913.6,619.9,917.2,619.9,922.1L619.9,922.1z"/>
<path class="st7" d="M738.8,920.7l-0.2,32.8c0,45.5,78.9,46.8,78.9,0v-32.8C817.4,876.2,738.8,879.5,738.8,920.7z M778,909.2
	c7.7,0.1,15.3,5.1,15.3,14.6v28.8c0,18.6-30.7,18.3-30.7,0v-28.8C762.7,913.8,770.4,909.1,778,909.2L778,909.2z"/>
<path class="st7" d="M836.7,888.4V988h24.2v-35.5h9.4l19.3,35.4h24.7V979l-17.8-29.9c25.1-14.5,19-60.6-12.8-60.6L836.7,888.4z
	 M861,909.7l13.7,0.3c15.6,0,14.8,20.9,0,21H861V909.7z"/>
<path class="st7" d="M930.8,888.2l63.4-0.1v21.1h-39.4v18.5h33.6v20.9h-34v18.5h41v20.6h-64.7V888.2z"/>
</svg>
