<?xml version="1.0" encoding="utf-8"?>
<!-- Generator: Adobe Illustrator 26.0.3, SVG Export Plug-In . SVG Version: 6.00 Build 0)  -->
<svg 
	 viewBox="0 0 600 450" >
<style type="text/css">
	.st0{fill:#E12127;}
	.st1{fill:#FFFFFF;}
</style>
<path class="st0" d="M426.4,90.4c0,3.9-3,6.9-7,6.9c-3.9,0-7-3-7-6.9c0-3.8,3.1-6.8,7-6.8C423.4,83.6,426.4,86.6,426.4,90.4z
	 M414.2,90.4c0,3,2.2,5.4,5.3,5.4c3,0,5.2-2.4,5.2-5.4c0-3-2.2-5.5-5.2-5.5S414.2,87.4,414.2,90.4L414.2,90.4z M418.4,94h-1.6v-6.8
	c0.9-0.2,1.7-0.2,2.6-0.2c1.3,0,1.9,0.2,2.4,0.5c0.4,0.4,0.7,0.9,0.7,1.5c0,0.7-0.6,1.3-1.4,1.6v0.1c0.7,0.2,1,0.7,1.2,1.7
	c0.2,1,0.3,1.5,0.5,1.7h-1.7c-0.2-0.2-0.3-0.9-0.5-1.7c-0.1-0.7-0.5-1.1-1.4-1.1h-0.7L418.4,94z M418.4,90.1h0.7
	c0.9,0,1.6-0.3,1.6-1c0-0.6-0.5-1-1.5-1c-0.3,0-0.6,0-0.9,0.1V90.1z"/>
<path class="st0" d="M173.8,83.6h235v283.5h-235V83.6z"/>
<g>
	<path class="st1" d="M383.7,214.4h-37.3v47.5c0,4.9-2,6.9-6.1,6.9s-6.1-2-6.1-6.9V139c0-4.1,2-6.5,6.1-6.5s6.1,2.4,6.1,6.5v43h37.3
		v-41.4c0-20.3-10.1-34.9-41.8-34.9s-47.1,12.2-47.1,34.9v119.7c0,23.1,15.4,35.3,47.1,35.3s41.8-14.6,41.8-35.3V214.4z
		 M286.8,141.4c0-22.7-11-34.9-36.9-34.9h-50.3v188.3h39.4v-72.6h11c26,0,36.9-12.2,36.9-34.9V141.4z M238.9,195v-61.3
		c8.9,0,12.6,2.4,12.6,10.5v40.2C251.4,192.5,247.8,195,238.9,195"/>
	<path class="st1" d="M208.3,329.4h-2.2v12.8h-6.4v-33.6h8c6.1,0,9.5,2.8,9.5,10.3C217.3,326.8,214.1,329.5,208.3,329.4
		 M207.1,313.1h-1v11.6h1.4c2,0,3.2-1.6,3.2-5.7C210.7,314.7,209.6,313.1,207.1,313.1 M229.1,342.9c-7.7,0-9.9-4.2-9.9-16.9
		c0-13.1,2.1-17.9,9.7-17.9c7.6,0,8.6,4.9,8.6,10.3c0,0.9-0.1,1.8-0.2,2.7l-6,0.2c0.1-0.9,0.1-2,0.1-2.6c0-4.2-0.5-6.4-2.6-6.4
		c-2.5,0-3.1,2.3-3.1,13.5c0,10.6,0.3,12.7,3.3,12.7c2.5,0,2.8-2.7,2.8-6.7c0-1.2-0.1-2.3-0.2-3.5l5.8,0.2c0.1,0.9,0.2,1.9,0.2,2.8
		C237.8,339.1,235.8,342.9,229.1,342.9 M258.7,342.3V327c0-5.1,0.1-6.2,0.1-9.4c-0.4,3.2-0.4,5.6-1,9.4c-0.8,5.1-2.6,15.3-2.6,15.3
		h-5.4c0,0-1.8-10.2-2.6-15.3c-0.6-3.8-0.9-6-1.1-9.4c0.1,3.3,0.1,4.3,0.1,9.4v15.3h-5.8v-33.6h8.2c1.1,6.2,2.1,13,2.9,17.4
		c0.4,2,0.5,2.9,0.9,5.6c0.4-2.7,0.6-3.8,0.9-5.6c0.8-4.5,1.9-11.3,3.1-17.5h8.1v33.6H258.7z M279.7,342.3l-1.1-6.2h-4.9l-1,6.2
		h-6.1l6.4-33.8h6.5l7,33.8L279.7,342.3z M276.6,322.8c-0.3-2.1-0.4-4-0.5-5.2c-0.1,1.1-0.2,3.1-0.5,5.1c-0.5,4.2-1.1,8.8-1.1,8.8
		h3.2C277.7,331.5,277.1,326.9,276.6,322.8 M303.2,342.3l-1.4-2.6c-1.1,1.8-2.2,3.2-5.3,3.2c-6.5,0-9.5-3.5-9.5-16.3
		c0-14.7,2.7-18.4,9.9-18.4c6.5,0,8.4,3.8,8.4,10.2c0,0.6,0,1.6-0.1,2.1l-6,0.2c0.1-0.7,0.1-1.4,0.1-2.1c0-3.9-0.5-6.1-2.5-6.1
		c-2.8,0-3.2,2.3-3.2,14.1c0,10.8,0.7,12.1,3.2,12.1c2.8,0,3.5-2.2,3.5-6.8c0-0.6,0-1,0-2.2h-3.3v-4.9h8.9v17.6L303.2,342.3z
		 M308.5,334.8h7v7.4h-7L308.5,334.8z M327.2,342.9c-7.7,0-9.9-4.2-9.9-16.9c0-13.1,2.1-17.9,9.7-17.9c7.6,0,8.6,4.9,8.6,10.3
		c0,0.9-0.1,1.8-0.2,2.7l-6,0.2c0.1-0.9,0.1-2,0.1-2.6c0-4.2-0.5-6.4-2.6-6.4c-2.5,0-3.1,2.3-3.1,13.5c0,10.6,0.3,12.7,3.3,12.7
		c2.5,0,2.8-2.7,2.8-6.7c0-1.2-0.1-2.3-0.2-3.5l5.8,0.2c0.1,0.9,0.2,1.9,0.2,2.8C335.9,339.1,333.9,342.9,327.2,342.9 M347.5,342.9
		c-6.8,0-9.8-3.1-9.8-17.4c0-13.8,3-17.4,9.8-17.4s9.8,3.7,9.8,17.4C357.3,339.5,354.3,342.9,347.5,342.9 M347.5,312.3
		c-2.9,0-3.2,3.3-3.2,13.2c0,10.2,0.3,13,3.2,13c2.9,0,3.2-2.8,3.2-13C350.7,315.6,350.5,312.3,347.5,312.3 M378.1,342.3V327
		c0-5.1,0.1-6.2,0.1-9.4c-0.3,3.2-0.4,5.6-1,9.4c-0.8,5.1-2.6,15.3-2.6,15.3h-5.4c0,0-1.7-10.2-2.6-15.3c-0.6-3.8-0.9-6-1.1-9.4
		c0.1,3.3,0.1,4.3,0.1,9.4v15.3h-5.8v-33.7h8.2c1.1,6.2,2.1,13,2.9,17.4c0.3,2,0.5,2.9,0.9,5.6c0.4-2.7,0.6-3.8,0.9-5.6
		c0.8-4.5,1.9-11.3,3.1-17.5h8.1v33.6L378.1,342.3z"/>
</g>
</svg>
