<?xml version="1.0" encoding="utf-8"?>
<!-- Generator: Adobe Illustrator 25.0.1, SVG Export Plug-In . SVG Version: 6.00 Build 0)  -->
<svg version="1.1" id="katman_1" xmlns="http://www.w3.org/2000/svg" xmlns:xlink="http://www.w3.org/1999/xlink" x="0px" y="0px"
	 viewBox="0 0 2988.1 1814.33" style="enable-background:new 0 0 2988.1 1814.33;" xml:space="preserve">
<style type="text/css">
	.st0{fill:#D22A36;}
</style>
<path class="st0" d="M649.61,1230.5l-36.12-93.05l349.07,17.95l-15.67,148.93L649.61,1230.5z M733.25,509.67L244.76,740.42
	l75.55,347.72h99.64L402.74,839.4l15.29-4.74l59.91,253.47h103.52l-3.83-302.98l15.29-4.74l52.36,307.73h109.6l25.85-365.98
	l15.28-4.75l27.12,370.72h144.93l51.01-508.93L733.25,509.67z M2241.83,1266.64l-1.01-29.01l100.29-1.18l0.92-31.62l-102.39-1.27
	l-1.02-29.37l134.9-3.16l1.1-34.68h-181.99l-5.43,168.32h190.78l-1.34-34.75L2241.83,1266.64z M1334.38,1204.76l-2.14,31.5
	l50.61,1.69l-0.64,31.97l-105.94-3.11l4.62-92.34l145.66-3.37l-2.1-34.75H1236.3l-16.87,168.32h214.37l-5.55-101.54L1334.38,1204.76
	z M2662.25,1217.79l-139.04-23.51l0.6-18.22l133.01-4.96l-3.36-34.75h-170.98l-8.75,87.24l141.35,24.58l0.64,16.03l-147.07,5.71
	l-3.61,34.75h205.84L2662.25,1217.79z M2094.88,1304.67l-16.87-168.32h-48.44l-69.58,80.23l-69.59-80.23h-48.43l-16.87,168.32h56.9
	l5.44-109.2l72.55,74.44l72.54-74.44l5.45,109.2H2094.88z M1855.74,519.95h-113.88l-10.37,520.53h137.6L1855.74,519.95z
	 M2208.62,927.26l-125.66,4.05l-4.17-306.13l131.43,3.97L2208.62,927.26z M2318.75,520.18h-355.06l-13.82,520.3h394.09
	L2318.75,520.18z M2743.33,633.87l-12.68-113.92h-349.83l2.96,101.47l111.89,3.88l11.47,415.19h137.87l-41.24-411.45L2743.33,633.87
	z M1390.9,626.44l109.74-3.67l12.5,103.71l-126.66,59.83L1390.9,626.44z M1519.11,1040.48h149.45l-97.4-233.62l77.73-42.47
	l-53.1-244.45h-381.51l-12.55,112.81l85.34-2.85l-41.15,410.57h133.57l3.61-130.88l96.24-52.57L1519.11,1040.48z M1591.8,1228.8
	l11.57-55.07l55.56-2.51l11.61,55.26L1591.8,1228.8z M1686.98,1304.67h57.62l-45.59-168.33h-135.19l-45.58,168.33h57.62l8.92-42.47
	l93.53,1.21L1686.98,1304.67z"/>
</svg>
