<?xml version="1.0" encoding="utf-8"?>
<!-- Generator: Adobe Illustrator 26.0.3, SVG Export Plug-In . SVG Version: 6.00 Build 0)  -->
<svg version="1.0" id="katman_1" xmlns="http://www.w3.org/2000/svg" xmlns:xlink="http://www.w3.org/1999/xlink" x="0px" y="0px"
	 viewBox="0 0 600 450" style="enable-background:new 0 0 600 450;" xml:space="preserve">
<style type="text/css">
	.st0{fill:#C6C3C1;}
</style>
<g>
	<path class="st0" d="M137.9,45.1c-36.7,0-66.8,28.3-69.7,64.3l37.5,15.5c3.2-2.2,7-3.4,11.1-3.4c0.4,0,0.7,0,1.1,0l16.7-24.2
		c0-0.1,0-0.2,0-0.3c0-14.5,11.8-26.4,26.4-26.4c14.5,0,26.4,11.8,26.4,26.4s-11.8,26.4-26.4,26.4c-0.2,0-0.4,0-0.6,0l-23.8,17
		c0,0.3,0,0.6,0,0.9c0,10.9-8.9,19.8-19.8,19.8c-9.6,0-17.6-6.8-19.4-15.9l-26.8-11.1c8.3,29.4,35.3,50.9,67.3,50.9
		c38.6,0,69.9-31.3,69.9-69.9C207.8,76.4,176.5,45.1,137.9,45.1"/>
	<path class="st0" d="M112,151.2l-8.6-3.5c1.5,3.2,4.2,5.8,7.7,7.3c7.6,3.1,16.3-0.4,19.4-8c1.5-3.7,1.5-7.7,0-11.4
		c-1.5-3.7-4.4-6.5-8-8.1c-3.6-1.5-7.5-1.5-10.9-0.2l8.9,3.7c5.6,2.3,8.2,8.7,5.9,14.3C124,150.9,117.6,153.6,112,151.2"/>
	<path class="st0" d="M178.5,97c0-9.7-7.9-17.6-17.6-17.6c-9.7,0-17.6,7.9-17.6,17.6c0,9.7,7.9,17.6,17.6,17.6
		C170.6,114.6,178.5,106.7,178.5,97 M147.8,97c0-7.3,5.9-13.2,13.2-13.2s13.2,5.9,13.2,13.2c0,7.3-5.9,13.2-13.2,13.2
		S147.8,104.3,147.8,97"/>
	<path class="st0" d="M282.5,93l-4.7,8.2c-3.6-2.5-8.5-4-12.8-4c-4.9,0-7.9,2-7.9,5.6c0,4.4,5.4,5.4,13.3,8.3
		c8.6,3,13.5,6.6,13.5,14.4c0,10.7-8.4,16.8-20.6,16.8c-5.9,0-13.1-1.5-18.5-4.9l3.4-9.1c4.5,2.4,9.8,3.7,14.5,3.7
		c6.4,0,9.5-2.4,9.5-5.9c0-4-4.6-5.2-12.1-7.7c-8.5-2.9-14.5-6.6-14.5-15.3c0-9.8,7.8-15.4,19.1-15.4C272.6,87.8,279,90.3,282.5,93"
		/>
	<polygon class="st0" points="319.1,98.2 319.1,141.4 308.1,141.4 308.1,98.2 292.1,98.2 292.1,88.7 335.1,88.7 335.1,98.2 	"/>
	<polygon class="st0" points="358.3,98.2 358.3,110 379.4,110 379.4,119.5 358.3,119.5 358.3,131.9 382.8,131.9 382.8,141.4 
		347.3,141.4 347.3,88.7 382.8,88.7 382.8,98.2 	"/>
	<path class="st0" d="M407.4,131.2l-3.5,10.2h-11.6l19.8-52.7h11.1l20.3,52.7h-12l-3.6-10.2L407.4,131.2L407.4,131.2z M417.6,101.3
		l-7.2,21.1H425L417.6,101.3z"/>
	<polygon class="st0" points="500.2,109.1 485.8,139.9 479.5,139.9 465.4,109.4 465.4,141.4 454.8,141.4 454.8,88.7 465.3,88.7 
		483,126.8 500.1,88.7 510.8,88.7 510.8,141.4 500.2,141.4 	"/>
	<path class="st0" d="M532.1,95.4c0,4.5-3.4,7.3-7.3,7.3c-3.9,0-7.3-2.8-7.3-7.3c0-4.5,3.4-7.3,7.3-7.3
		C528.7,88,532.1,90.8,532.1,95.4 M518.7,95.4c0,3.8,2.7,6.2,6.1,6.2c3.3,0,6.1-2.4,6.1-6.2c0-3.8-2.7-6.1-6.1-6.1
		C521.5,89.2,518.7,91.6,518.7,95.4 M524.9,91.6c1.9,0,2.5,1,2.5,2.1c0,1-0.6,1.7-1.3,2l1.7,3.2h-1.4l-1.4-2.8h-1.5v2.8h-1.2v-7.2
		H524.9z M523.5,95h1.3c0.8,0,1.3-0.5,1.3-1.2c0-0.7-0.4-1.1-1.3-1.1h-1.3L523.5,95L523.5,95z"/>
</g>
<g>
	<path d="M137.9,248.6c-36.7,0-66.8,28.3-69.7,64.3l37.5,15.5c3.2-2.2,7-3.4,11.1-3.4c0.4,0,0.7,0,1.1,0l16.7-24.2
		c0-0.1,0-0.2,0-0.3c0-14.5,11.8-26.4,26.4-26.4c14.5,0,26.4,11.8,26.4,26.4c0,14.5-11.8,26.4-26.4,26.4c-0.2,0-0.4,0-0.6,0
		l-23.8,17c0,0.3,0,0.6,0,0.9c0,10.9-8.9,19.8-19.8,19.8c-9.6,0-17.6-6.8-19.4-15.9l-26.8-11.1c8.3,29.4,35.3,50.9,67.3,50.9
		c38.6,0,69.9-31.3,69.9-69.9C207.8,279.9,176.5,248.6,137.9,248.6"/>
	<path d="M112,354.7l-8.6-3.5c1.5,3.2,4.2,5.8,7.7,7.3c7.6,3.1,16.3-0.4,19.4-8c1.5-3.7,1.5-7.7,0-11.4c-1.5-3.7-4.4-6.5-8-8.1
		c-3.6-1.5-7.5-1.5-10.9-0.2l8.9,3.7c5.6,2.3,8.2,8.7,5.9,14.3C124,354.4,117.6,357.1,112,354.7"/>
	<path d="M178.5,300.5c0-9.7-7.9-17.6-17.6-17.6c-9.7,0-17.6,7.9-17.6,17.6c0,9.7,7.9,17.6,17.6,17.6
		C170.6,318.1,178.5,310.2,178.5,300.5 M147.8,300.5c0-7.3,5.9-13.2,13.2-13.2s13.2,5.9,13.2,13.2c0,7.3-5.9,13.2-13.2,13.2
		S147.8,307.8,147.8,300.5"/>
	<path d="M282.5,296.5l-4.7,8.2c-3.6-2.5-8.5-4-12.8-4c-4.9,0-7.9,2-7.9,5.6c0,4.4,5.4,5.4,13.3,8.3c8.6,3,13.5,6.6,13.5,14.4
		c0,10.7-8.4,16.8-20.6,16.8c-5.9,0-13.1-1.5-18.5-4.9l3.4-9.1c4.5,2.4,9.8,3.7,14.5,3.7c6.4,0,9.5-2.4,9.5-5.9
		c0-4-4.6-5.2-12.1-7.7c-8.5-2.9-14.5-6.6-14.5-15.3c0-9.8,7.8-15.4,19.1-15.4C272.6,291.3,279,293.8,282.5,296.5"/>
	<polygon points="319.1,301.7 319.1,344.9 308.1,344.9 308.1,301.7 292.1,301.7 292.1,292.2 335.1,292.2 335.1,301.7 	"/>
	<polygon points="358.3,301.7 358.3,313.5 379.4,313.5 379.4,323 358.3,323 358.3,335.4 382.8,335.4 382.8,344.9 347.3,344.9 
		347.3,292.2 382.8,292.2 382.8,301.7 	"/>
	<path d="M407.4,334.7l-3.5,10.2h-11.6l19.8-52.7h11.1l20.3,52.7h-12l-3.6-10.2L407.4,334.7L407.4,334.7z M417.6,304.8l-7.2,21.1
		H425L417.6,304.8z"/>
	<polygon points="500.2,312.6 485.8,343.4 479.5,343.4 465.4,312.9 465.4,344.9 454.8,344.9 454.8,292.2 465.3,292.2 483,330.3 
		500.1,292.2 510.8,292.2 510.8,344.9 500.2,344.9 	"/>
	<path d="M532.1,298.9c0,4.5-3.4,7.3-7.3,7.3c-3.9,0-7.3-2.8-7.3-7.3c0-4.5,3.4-7.3,7.3-7.3C528.7,291.5,532.1,294.3,532.1,298.9
		 M518.7,298.9c0,3.8,2.7,6.2,6.1,6.2c3.3,0,6.1-2.4,6.1-6.2c0-3.8-2.7-6.1-6.1-6.1C521.5,292.7,518.7,295.1,518.7,298.9
		 M524.9,295.1c1.9,0,2.5,1,2.5,2.1c0,1-0.6,1.7-1.3,2l1.7,3.2h-1.4l-1.4-2.8h-1.5v2.8h-1.2v-7.2H524.9z M523.5,298.5h1.3
		c0.8,0,1.3-0.5,1.3-1.2c0-0.7-0.4-1.1-1.3-1.1h-1.3L523.5,298.5L523.5,298.5z"/>
</g>
</svg>
